<svg xmlns="http://www.w3.org/2000/svg" xmlns:xlink="http://www.w3.org/1999/xlink" width="100" height="100" viewBox="0 0 100 100"><g><g transform="translate(50 50) scale(0.69 0.69) rotate(0) translate(-50 -50)" style="fill:#ffffff"><svg fill="#ffffff" xmlns="http://www.w3.org/2000/svg" xmlns:xlink="http://www.w3.org/1999/xlink" version="1.1" x="0px" y="0px" viewBox="0 0 100 100" enable-background="new 0 0 100 100" xml:space="preserve"><path fill="white" stroke="white" stroke_width="5px" d="M86.3,64.5c1.9-4.6,2.9-9.5,2.9-14.6c0-21.3-17.4-38.7-38.7-38.7c-21.3,0-38.7,17.4-38.7,38.7c0,11.8,5.3,22.4,13.7,29.5  c0.1,0.1,0.1,0.1,0.2,0.2c6.7,5.6,15.4,9,24.8,9c5.3,0,10.5-1.1,15.4-3.2c2.6,2.5,6.2,4,10.1,4c8.1,0,14.6-6.6,14.6-14.6  C90.6,70.8,89,67.2,86.3,64.5z M25.4,77.8C17.8,70.9,13,61,13,50c0-20.7,16.8-37.5,37.5-37.5C71.2,12.5,88,29.3,88,50  c0,4.7-0.9,9.3-2.6,13.7c0,0,0,0,0,0c-0.2-0.2-0.4-0.3-0.7-0.5c-0.1-0.1-0.3-0.2-0.4-0.3c-0.2-0.1-0.4-0.3-0.6-0.4  c-0.2-0.1-0.4-0.2-0.5-0.3c-0.2-0.1-0.4-0.2-0.6-0.3c-0.2-0.1-0.4-0.2-0.6-0.3c-0.2-0.1-0.4-0.2-0.6-0.2c-0.2-0.1-0.5-0.2-0.7-0.3  c-0.2-0.1-0.4-0.1-0.6-0.2c-0.3-0.1-0.5-0.1-0.8-0.2c-0.2,0-0.4-0.1-0.6-0.1c-0.3-0.1-0.6-0.1-0.9-0.1c-0.2,0-0.3,0-0.5-0.1  c-0.5,0-0.9-0.1-1.4-0.1c-2.8,0-5.4,0.8-7.7,2.2c-2-2-4.5-3.7-7.2-5.1c2.5-2.6,4.1-6.2,4.1-10.1c0-8.1-6.6-14.7-14.7-14.7  c-8.1,0-14.7,6.6-14.7,14.7c0,3.9,1.6,7.5,4.1,10.1C28,63.3,25.8,74.1,25.4,77.8z M50.5,60.6c-7.4,0-13.4-6-13.4-13.4  s6-13.4,13.4-13.4c7.4,0,13.4,6,13.4,13.4S57.9,60.6,50.5,60.6z M50.5,87.4c-9.1,0-17.4-3.3-23.9-8.6c0.1-2,1.2-14.3,14.3-20.5  c2.6,2.2,5.9,3.6,9.6,3.6c3.7,0,7.1-1.4,9.7-3.7c2.7,1.3,5.1,2.9,7.1,4.9c-3.6,2.7-5.9,6.9-5.9,11.8c0,0.5,0,1,0.1,1.4  c0,0.1,0,0.3,0.1,0.4c0,0.3,0.1,0.7,0.2,1c0,0.1,0.1,0.3,0.1,0.4c0.1,0.3,0.2,0.7,0.3,1c0,0.1,0.1,0.2,0.1,0.4  c0.1,0.3,0.2,0.7,0.4,1c0,0.1,0.1,0.2,0.1,0.3c0.1,0.3,0.3,0.6,0.5,1c0.1,0.1,0.1,0.2,0.2,0.3c0.2,0.3,0.4,0.6,0.6,0.9  c0.1,0.1,0.1,0.2,0.2,0.3c0.2,0.3,0.4,0.5,0.6,0.8c0.1,0.1,0.2,0.2,0.2,0.3c0.1,0.1,0.1,0.2,0.2,0.3C60.4,86.5,55.5,87.4,50.5,87.4z   M76,88.3c-6,0-11.1-4-12.8-9.4c0,0,0,0,0,0c-0.1-0.4-0.2-0.7-0.3-1.1c0-0.1,0-0.1,0-0.2c-0.1-0.3-0.1-0.7-0.2-1.1  c0-0.1,0-0.2,0-0.3c0-0.4-0.1-0.9-0.1-1.4c0-7.4,6-13.4,13.4-13.4c0.4,0,0.9,0,1.3,0.1c0.2,0,0.3,0.1,0.5,0.1c0.3,0,0.5,0.1,0.8,0.1  c0.2,0,0.4,0.1,0.6,0.1c0.2,0.1,0.4,0.1,0.6,0.2c0.2,0.1,0.4,0.1,0.7,0.2c0.2,0.1,0.4,0.1,0.6,0.2c0.2,0.1,0.5,0.2,0.7,0.3  c0.2,0.1,0.3,0.1,0.5,0.2c0.2,0.1,0.5,0.3,0.7,0.4c0.1,0.1,0.3,0.2,0.4,0.2c0.2,0.2,0.5,0.3,0.7,0.5c0.1,0.1,0.2,0.1,0.3,0.2  c0.2,0.2,0.5,0.4,0.7,0.6c2.7,2.5,4.4,6,4.4,9.9C89.4,82.3,83.4,88.3,76,88.3z M81.7,74.9c0,0.3-0.3,0.6-0.6,0.6h-4.5V80  c0,0.3-0.3,0.6-0.6,0.6c-0.3,0-0.6-0.3-0.6-0.6v-4.5h-4.5c-0.3,0-0.6-0.3-0.6-0.6c0-0.3,0.3-0.6,0.6-0.6h4.5v-4.5  c0-0.3,0.3-0.6,0.6-0.6c0.3,0,0.6,0.3,0.6,0.6v4.5h4.5C81.4,74.2,81.7,74.5,81.7,74.9z"></path></svg></g></g></svg>


