<svg xmlns="http://www.w3.org/2000/svg" xmlns:xlink="http://www.w3.org/1999/xlink" version="1.1" x="0px" y="0px" viewBox="0 0 100 125"><g><g><g><path fill="none" stroke="white" d="M79.624,81.345C79.61,65.022,66.327,51.746,50,51.746c-16.335,0-29.624,13.289-29.624,29.624     c0.007,0.053,0.011,0.134,0.012,0.217v9.584h59.237v-9.364c-0.008-0.073-0.012-0.147-0.012-0.22     C79.613,81.504,79.618,81.425,79.624,81.345z"/><path fill="none" stroke="white" d="M50,39.468c8.447,0,15.319-6.872,15.319-15.32C65.319,15.701,58.447,8.83,50,8.83     s-15.319,6.871-15.319,15.318C34.681,32.596,41.553,39.468,50,39.468z"/><path color="white" d="M50,43.298c10.559,0,19.149-8.591,19.149-19.15C69.149,13.59,60.558,5,50,5s-19.149,8.59-19.149,19.148     C30.851,34.707,39.441,43.298,50,43.298z M50,8.83c8.447,0,15.319,6.871,15.319,15.318c0,8.448-6.872,15.32-15.319,15.32     s-15.319-6.872-15.319-15.32C34.681,15.701,41.553,8.83,50,8.83z"/><path d="M83.454,81.369c0-18.447-15.008-33.454-33.455-33.454S16.546,62.923,16.546,81.369c0,0.089,0.005,0.176,0.012,0.228     v11.487c0,1.057,0.857,1.915,1.915,1.915h63.067c1.057,0,1.915-0.857,1.915-1.915V81.598c0-0.036-0.001-0.07-0.003-0.105     C83.453,81.452,83.454,81.411,83.454,81.369z M79.625,91.17H20.387v-9.584c0-0.083-0.005-0.164-0.012-0.217     c0-16.335,13.289-29.624,29.624-29.624c16.327,0,29.611,13.276,29.624,29.599c-0.006,0.08-0.011,0.159-0.011,0.242     c0,0.073,0.004,0.147,0.012,0.22V91.17z"/></g></g></g></svg>
