<svg xmlns="http://www.w3.org/2000/svg" xmlns:xlink="http://www.w3.org/1999/xlink" version="1.2" baseProfile="tiny" x="0px" y="0px" viewBox="0 0 100 125" xml:space="preserve"><path fill="white" stroke="white" stroke_width="5px" d="M50,0.8C22.8,0.8,0.8,22.8,0.8,50s22,49.2,49.2,49.2s49.2-22,49.2-49.2S77.2,0.8,50,0.8z M18.1,84.1  C18.4,73.4,27,64,39.8,60.6c3,1.7,6.5,2.6,10.2,2.6s7.2-1,10.2-2.6C73,64,81.6,73.4,81.9,84.1C73.6,91.9,62.3,96.8,50,96.8  S26.4,91.9,18.1,84.1z M50,60.8c-10.3,0-18.8-8.4-18.8-18.8S39.7,23.3,50,23.3S68.8,31.7,68.8,42S60.3,60.8,50,60.8z M84.3,81.8  C83,71.5,74.9,62.7,63,58.8c5-3.9,8.3-10,8.3-16.8c0-11.7-9.5-21.2-21.2-21.2S28.8,30.3,28.8,42c0,6.8,3.3,12.9,8.3,16.8  c-11.8,3.9-20,12.7-21.3,23C8,73.4,3.2,62.3,3.2,50c0-25.8,21-46.8,46.8-46.8s46.8,21,46.8,46.8C96.8,62.3,92,73.4,84.3,81.8z"/></svg>
