<svg xmlns="http://www.w3.org/2000/svg" xmlns:xlink="http://www.w3.org/1999/xlink" version="1.1" x="0px" y="0px" viewBox="0 0 100 125" style="enable-background:new 0 0 100 100;" xml:space="preserve"><path fill="white" d="M92.8,30.7c-0.6-0.9-1.7-1.4-2.8-1.4H26c-0.1,0-0.1,0-0.2,0l-3.2-9.1c-0.7-2.3-2.9-3.9-5.3-3.9H8.9c-1.3,0-2.4,1.1-2.4,2.4  s1.1,2.4,2.4,2.4h8.4c0.4,0,0.7,0.2,0.8,0.6l16.7,46.7c0.3,1.1,1,2,1.9,2.7c-0.9,1.3-1.4,2.8-1.4,4.5c0,4.4,3.6,8,8,8  c4.4,0,8-3.6,8-8c0-1.2-0.3-2.3-0.7-3.3h17c-0.5,1-0.7,2.1-0.7,3.3c0,4.4,3.6,8,8,8c4.4,0,8-3.6,8-8c0-2.6-1.2-4.8-3.1-6.3  c-0.4-0.4-1.1-0.8-1.8-1.1c0,0,0,0,0,0c-0.9-0.4-1.9-0.6-2.4-0.6l-0.7,0c0,0,0,0,0,0s0,0,0,0l-31.3,0c-0.1,0-0.2,0-0.3,0  c-0.1,0-0.2,0-0.3,0l-2.9,0c-0.4,0-0.7-0.2-0.8-0.6l-2.7-7.4h45.3c1.5,0,2.8-0.9,3.2-2.3l8.2-23.8C93.6,32.6,93.4,31.5,92.8,30.7z   M43.3,78.5c-1.6,0-2.9-1.3-2.9-2.9c0-1.6,1.3-2.9,2.9-2.9c1.6,0,2.9,1.3,2.9,2.9C46.2,77.2,44.9,78.5,43.3,78.5z M75,78.5  c-1.6,0-2.9-1.3-2.9-2.9c0-1.6,1.3-2.9,2.9-2.9c1.6,0,2.9,1.3,2.9,2.9C77.8,77.2,76.5,78.5,75,78.5z M81.3,55.4H35.1l-7.8-21.9h61.6  L81.3,55.4z"/></svg>
