<svg xmlns:dc="http://purl.org/dc/elements/1.1/" xmlns:cc="http://creativecommons.org/ns#" xmlns:rdf="http://www.w3.org/1999/02/22-rdf-syntax-ns#" xmlns:svg="http://www.w3.org/2000/svg" xmlns="http://www.w3.org/2000/svg" xmlns:sodipodi="http://sodipodi.sourceforge.net/DTD/sodipodi-0.dtd" xmlns:inkscape="http://www.inkscape.org/namespaces/inkscape" version="1.1" x="0px" y="0px" viewBox="0 0 100 125"><g transform="translate(0,-952.36218)"><path fill="white" style="font-size:medium;font-style:normal;font-variant:normal;font-weight:normal;font-stretch:normal;text-indent:0;text-align:start;text-decoration:none;line-height:normal;letter-spacing:normal;word-spacing:normal;text-transform:none;direction:ltr;block-progression:tb;writing-mode:lr-tb;text-anchor:start;baseline-shift:baseline;opacity:1;color:#000000;fill:#ffffff;fill-opacity:1;stroke:none;stroke-width:4;marker:none;visibility:visible;display:inline;overflow:visible;enable-background:accumulate;font-family:Sans;-inkscape-font-specification:Sans" d="M 49.96875 12 C 47.245251 12 44.507518 12.77853 42.3125 14.46875 L 6.78125 41.8125 A 2.0002 2.0002 0 1 0 9.21875 44.96875 L 44.75 17.625 C 46.132664 16.56032 48.024635 16 49.96875 16 C 51.912894 16 53.84853 16.56991 55.21875 17.625 L 80.59375 37.125 L 80.59375 84 L 63.0625 84 L 63.0625 58.9375 A 2.0002 2.0002 0 0 0 61.0625 56.9375 L 38.96875 56.9375 A 2.0002 2.0002 0 0 0 36.96875 58.9375 L 36.96875 84 L 19.40625 84 L 19.40625 52.25 A 2.0002 2.0002 0 1 0 15.40625 52.25 L 15.40625 86 A 2.0002 2.0002 0 0 0 17.40625 88 L 38.96875 88 A 2.0002 2.0002 0 0 0 40.96875 86 L 40.96875 60.9375 L 59.0625 60.9375 L 59.0625 86 A 2.0002 2.0002 0 0 0 61.0625 88 L 82.59375 88 A 2.0002 2.0002 0 0 0 84.59375 86 L 84.59375 40.21875 L 90.78125 44.96875 A 2.0002 2.0002 0 1 0 93.21875 41.8125 L 84.59375 35.1875 L 84.59375 16.125 A 2.0002 2.0002 0 0 0 82.375 14.09375 A 2.0002 2.0002 0 0 0 80.59375 16.125 L 80.59375 32.09375 L 57.65625 14.46875 C 55.44874 12.76894 52.69227 12 49.96875 12 z M 46.09375 72.3125 C 44.805572 72.3125 43.75 73.368072 43.75 74.65625 C 43.75 75.944428 44.805572 77 46.09375 77 C 47.381928 77 48.40625 75.944428 48.40625 74.65625 C 48.40625 73.368072 47.381928 72.3125 46.09375 72.3125 z " transform="translate(0,952.36218)"/></g></svg>